<svg width="18.000000" height="18.000000" viewBox="0 0 18 18" fill="none" xmlns="http://www.w3.org/2000/svg" xmlns:xlink="http://www.w3.org/1999/xlink">
	<desc>
			Created with Pixso.
	</desc>
	<defs>
		<clipPath id="clip1_508">
			<rect id="fi:check-circle" rx="-0.500000" width="17.000000" height="17.000000" transform="translate(0.500000 0.500000)" fill="white" fill-opacity="0"/>
		</clipPath>
	</defs>
	<rect id="fi:check-circle" rx="-0.500000" width="17.000000" height="17.000000" transform="translate(0.500000 0.500000)" fill="#FFFFFF" fill-opacity="0"/>
	<g clip-path="url(#clip1_508)">
		<path id="Vector" d="M16.5 8.31L16.5 9C16.49 10.61 15.97 12.19 15 13.48C14.03 14.78 12.67 15.72 11.12 16.18C9.57 16.64 7.91 16.59 6.4 16.03C4.88 15.47 3.58 14.43 2.7 13.07C1.82 11.72 1.4 10.11 1.51 8.5C1.62 6.88 2.24 5.35 3.29 4.12C4.34 2.89 5.76 2.03 7.34 1.68C8.92 1.32 10.57 1.48 12.05 2.14" stroke="#00C868" stroke-opacity="1.000000" stroke-width="1.500000" stroke-linejoin="round" stroke-linecap="round"/>
		<path id="Vector" d="M16.5 3L9 10.5L6.75 8.25" stroke="#00C868" stroke-opacity="1.000000" stroke-width="1.500000" stroke-linejoin="round" stroke-linecap="round"/>
	</g>
</svg>
