<svg width="20.245728" height="20.245728" viewBox="0 0 20.2457 20.2457" fill="none" xmlns="http://www.w3.org/2000/svg" xmlns:xlink="http://www.w3.org/1999/xlink">
	<desc>
			Created with Pixso.
	</desc>
	<defs/>
	<path id="Vector" d="M13.83 6.41C13.74 6.31 13.62 6.24 13.5 6.19C13.38 6.14 13.25 6.11 13.12 6.11C12.99 6.11 12.86 6.14 12.73 6.19C12.61 6.24 12.5 6.31 12.41 6.41L10.12 8.71L7.83 6.41C7.64 6.22 7.38 6.11 7.12 6.11C6.85 6.11 6.6 6.22 6.41 6.41C6.22 6.6 6.11 6.85 6.11 7.12C6.11 7.38 6.22 7.64 6.41 7.83L8.71 10.12L6.41 12.41C6.31 12.5 6.24 12.61 6.19 12.73C6.14 12.86 6.11 12.99 6.11 13.12C6.11 13.25 6.14 13.38 6.19 13.5C6.24 13.62 6.31 13.73 6.41 13.83C6.5 13.92 6.61 14 6.73 14.05C6.86 14.1 6.99 14.12 7.12 14.12C7.25 14.12 7.38 14.1 7.5 14.05C7.62 14 7.73 13.92 7.83 13.83L10.12 11.53L12.41 13.83C12.5 13.92 12.61 14 12.73 14.05C12.86 14.1 12.99 14.12 13.12 14.12C13.25 14.12 13.38 14.1 13.5 14.05C13.62 14 13.74 13.92 13.83 13.83C13.92 13.73 14 13.62 14.05 13.5C14.1 13.38 14.12 13.25 14.12 13.12C14.12 12.99 14.1 12.86 14.05 12.73C14 12.61 13.92 12.5 13.83 12.41L11.53 10.12L13.83 7.83C13.92 7.73 14 7.62 14.05 7.5C14.1 7.38 14.12 7.25 14.12 7.12C14.12 6.99 14.1 6.86 14.05 6.73C14 6.61 13.92 6.5 13.83 6.41ZM17.19 3.05C16.27 2.09 15.16 1.33 13.94 0.81C12.72 0.28 11.41 0.01 10.08 0C8.75 -0.02 7.44 0.24 6.21 0.74C4.98 1.24 3.86 1.98 2.92 2.92C1.98 3.86 1.24 4.98 0.74 6.21C0.24 7.44 -0.02 8.75 0 10.08C0.01 11.41 0.28 12.72 0.81 13.94C1.33 15.16 2.09 16.27 3.05 17.19C3.97 18.14 5.07 18.9 6.29 19.43C7.51 19.95 8.83 20.23 10.15 20.24C11.48 20.25 12.8 20 14.03 19.5C15.26 18.99 16.37 18.25 17.31 17.31C18.25 16.37 18.99 15.26 19.5 14.03C20 12.8 20.25 11.48 20.24 10.15C20.23 8.83 19.95 7.51 19.43 6.29C18.9 5.07 18.14 3.97 17.19 3.05ZM15.78 15.78C14.47 17.09 12.75 17.9 10.91 18.09C9.06 18.27 7.22 17.81 5.68 16.78C4.14 15.75 3 14.22 2.46 12.45C1.93 10.68 2.02 8.78 2.72 7.07C3.43 5.36 4.71 3.95 6.34 3.07C7.97 2.2 9.86 1.92 11.67 2.28C13.49 2.64 15.12 3.61 16.3 5.04C17.47 6.47 18.12 8.27 18.12 10.12C18.12 11.17 17.92 12.21 17.51 13.18C17.11 14.15 16.52 15.04 15.78 15.78Z" fill="#FFFFFF" fill-opacity="1.000000" fill-rule="nonzero"/>
</svg>
