<svg width="24.000000" height="23.998779" viewBox="0 0 24 23.9988" fill="none" xmlns="http://www.w3.org/2000/svg" xmlns:xlink="http://www.w3.org/1999/xlink">
	<desc>
			Created with Pixso.
	</desc>
	<defs/>
	<path id="Vector" d="M8.04 5.17C8.62 4.73 9.29 4.41 10.01 4.23C9.98 3.95 10 3.66 10.09 3.4C10.17 3.13 10.31 2.88 10.5 2.67C10.69 2.46 10.92 2.29 11.18 2.17C11.43 2.06 11.71 2 11.99 2C12.28 2 12.56 2.06 12.81 2.17C13.07 2.29 13.3 2.46 13.49 2.67C13.68 2.88 13.82 3.13 13.9 3.4C13.99 3.66 14.01 3.95 13.98 4.23C14.7 4.41 15.37 4.73 15.95 5.17C16.93 5.92 17.49 6.93 17.83 7.93C18.16 8.92 18.28 9.96 18.34 10.83C18.36 11.19 18.38 11.53 18.39 11.83L18.4 12.03C18.41 12.39 18.43 12.66 18.45 12.86C18.65 14.32 18.89 15.35 19.24 16.17C19.58 16.97 20.03 17.61 20.7 18.29C20.84 18.43 20.94 18.61 20.98 18.8C21.01 18.99 20.99 19.19 20.92 19.38C20.84 19.56 20.71 19.72 20.55 19.83C20.39 19.94 20.19 19.99 20 19.99L13.73 19.99C13.9 20.3 13.99 20.64 13.99 20.99C13.99 21.34 13.9 21.69 13.73 21.99C13.55 22.3 13.3 22.55 12.99 22.73C12.69 22.9 12.35 22.99 11.99 22.99C11.64 22.99 11.3 22.9 10.99 22.73C10.69 22.55 10.44 22.3 10.26 21.99C10.09 21.69 9.99 21.34 9.99 20.99C9.99 20.64 10.09 20.3 10.26 19.99L4 19.99C3.8 19.99 3.6 19.94 3.44 19.83C3.28 19.72 3.15 19.56 3.07 19.38C3 19.19 2.98 18.99 3.01 18.8C3.05 18.61 3.15 18.43 3.29 18.29C3.96 17.61 4.41 16.97 4.75 16.18C5.1 15.36 5.34 14.33 5.54 12.86C5.56 12.66 5.58 12.39 5.59 12.03L5.6 11.83C5.61 11.53 5.63 11.19 5.65 10.83C5.71 9.96 5.83 8.92 6.16 7.93C6.5 6.93 7.06 5.92 8.04 5.17ZM6.06 17.99C6.26 17.67 6.44 17.32 6.59 16.95C7.04 15.9 7.31 14.67 7.52 13.13C7.56 12.79 7.58 12.46 7.59 12.12L7.6 11.9C7.61 11.6 7.63 11.29 7.65 10.97C7.7 10.15 7.81 9.32 8.06 8.56C8.31 7.81 8.69 7.19 9.26 6.76C9.82 6.32 10.67 5.99 12 5.99C13.32 5.99 14.17 6.32 14.73 6.76C15.3 7.19 15.68 7.81 15.93 8.56C16.18 9.32 16.29 10.15 16.34 10.97C16.36 11.29 16.38 11.6 16.39 11.9L16.4 12.12C16.41 12.47 16.43 12.83 16.47 13.13C16.68 14.67 16.95 15.89 17.4 16.95C17.55 17.32 17.73 17.67 17.93 17.99L6.07 17.99L6.06 17.99Z" fill="#FFFFFF" fill-opacity="1.000000" fill-rule="evenodd"/>
</svg>
