<svg width="16.000000" height="16.000000" viewBox="0 0 16 16" fill="none" xmlns="http://www.w3.org/2000/svg" xmlns:xlink="http://www.w3.org/1999/xlink">
	<desc>
			Created with Pixso.
	</desc>
	<defs/>
	<path id="Vector" d="M2.86 5.52C2.98 5.4 3.15 5.33 3.33 5.33C3.51 5.33 3.67 5.4 3.8 5.52L8 9.72L12.19 5.52C12.25 5.46 12.33 5.41 12.41 5.37C12.49 5.34 12.58 5.32 12.66 5.32C12.75 5.32 12.84 5.34 12.92 5.37C13 5.4 13.08 5.45 13.14 5.52C13.2 5.58 13.25 5.65 13.29 5.73C13.32 5.82 13.34 5.9 13.34 5.99C13.34 6.08 13.32 6.17 13.28 6.25C13.25 6.33 13.2 6.41 13.13 6.47L8.47 11.13C8.34 11.26 8.17 11.33 8 11.33C7.82 11.33 7.65 11.26 7.52 11.13L2.86 6.47C2.73 6.34 2.66 6.17 2.66 6C2.66 5.82 2.73 5.65 2.86 5.52Z" fill="#FFFFFF" fill-opacity="1.000000" fill-rule="evenodd"/>
</svg>
