<svg width="24.000000" height="23.998779" viewBox="0 0 24 23.9988" fill="none" xmlns="http://www.w3.org/2000/svg" xmlns:xlink="http://www.w3.org/1999/xlink">
	<desc>
			Created with Pixso.
	</desc>
	<defs/>
	<path id="Vector" d="M12 4.6C10.75 2.17 7.12 1.85 5.57 4.42C5.24 4.96 5.06 5.58 5.04 6.22C5.03 6.85 5.18 7.48 5.48 8.04C4.78 8.16 4.15 8.52 3.7 9.06C3.24 9.61 2.99 10.29 3 11L3 19C3 19.79 3.31 20.55 3.87 21.12C4.44 21.68 5.2 22 6 22L18 22C18.79 22 19.55 21.68 20.12 21.12C20.68 20.55 21 19.79 21 19L21 11C21 10.29 20.75 9.61 20.29 9.06C19.84 8.52 19.21 8.16 18.51 8.04C18.81 7.48 18.96 6.85 18.95 6.22C18.93 5.58 18.75 4.96 18.42 4.42C16.87 1.85 13.24 2.17 12 4.6ZM10.78 7.99L10.37 5.98C10.07 4.48 8.08 4.13 7.29 5.45C6.62 6.57 7.42 7.99 8.72 7.99L10.78 7.99ZM11 10L6 10C5.73 10 5.48 10.1 5.29 10.29C5.1 10.48 5 10.73 5 11L5 14L11 14L11 10ZM11 16L5 16L5 19C5 19.26 5.1 19.51 5.29 19.7C5.48 19.89 5.73 20 6 20L11 20L11 16ZM13 20L13 16L19 16L19 19C19 19.26 18.89 19.51 18.7 19.7C18.51 19.89 18.26 20 18 20L13 20ZM19 14L13 14L13 10L18 10C18.26 10 18.51 10.1 18.7 10.29C18.89 10.48 19 10.73 19 11L19 14ZM13.21 7.99L15.27 7.99C16.57 7.99 17.37 6.56 16.7 5.45C15.91 4.13 13.92 4.48 13.62 5.98L13.21 7.99Z" fill="#FFFFFF" fill-opacity="1.000000" fill-rule="evenodd"/>
</svg>
