<svg width="25.632690" height="31.729736" viewBox="0 0 25.6327 31.7297" fill="none" xmlns="http://www.w3.org/2000/svg" xmlns:xlink="http://www.w3.org/1999/xlink">
	<desc>
			Created with Pixso.
	</desc>
	<defs/>
	<path id="α 2" d="M7.23 31.72C9.89 31.72 12.84 29.91 16.08 26.29C17.23 28.2 18.31 29.86 19.33 31.26L25.63 31.26C23.94 29.3 21.94 26.28 19.6 22.21C21.34 20.03 22.58 18.13 23.33 16.52C24.09 14.91 24.59 13.08 24.84 11.02L19.14 11.02C19.07 12.42 18.88 13.78 18.58 15.1C18.28 16.41 17.87 17.69 17.36 18.93C17.06 18.35 16.83 17.93 16.69 17.66L15.3 14.91C13.81 12.01 11.87 10.56 9.48 10.56C6.81 10.56 4.55 11.68 2.73 13.92C0.91 16.15 0 18.91 0 22.19C0 25.02 0.66 27.32 2 29.08C3.34 30.84 5.08 31.72 7.23 31.72ZM8.46 27.81C7.5 27.81 6.78 27.31 6.31 26.31C5.84 25.31 5.6 23.81 5.6 21.8C5.6 19.74 5.92 18.01 6.55 16.6C7.18 15.19 7.97 14.48 8.9 14.48C9.48 14.48 10.07 14.97 10.66 15.96L11.9 18.07C12.07 18.39 12.43 19.1 12.97 20.23C13.24 20.76 13.45 21.2 13.61 21.54L14.41 23.09C11.83 26.23 9.84 27.81 8.46 27.81Z" fill="#FFFFFF" fill-opacity="1.000000" fill-rule="nonzero"/>
	<path id="path 6" d="M12.5 0L13.58 2.06L16 2.39L14.25 4L14.66 6.27L12.5 5.19L10.33 6.27L10.75 4L9 2.39L11.41 2.06L12.5 0Z" fill="#F94B2F" fill-opacity="1.000000" fill-rule="evenodd"/>
</svg>
