<svg width="16.000000" height="16.000000" viewBox="0 0 16 16" fill="none" xmlns="http://www.w3.org/2000/svg" xmlns:xlink="http://www.w3.org/1999/xlink">
	<desc>
			Created with Pixso.
	</desc>
	<defs/>
	<path id="Vector" d="M8 2.66C8.17 2.66 8.34 2.73 8.47 2.86C8.59 2.98 8.66 3.15 8.66 3.33L8.66 7.33L12.66 7.33C12.84 7.33 13.01 7.4 13.13 7.52C13.26 7.65 13.33 7.82 13.33 8C13.33 8.17 13.26 8.34 13.13 8.47C13.01 8.59 12.84 8.66 12.66 8.66L8.66 8.66L8.66 12.66C8.66 12.84 8.59 13.01 8.47 13.13C8.34 13.26 8.17 13.33 8 13.33C7.82 13.33 7.65 13.26 7.52 13.13C7.4 13.01 7.33 12.84 7.33 12.66L7.33 8.66L3.33 8.66C3.15 8.66 2.98 8.59 2.86 8.47C2.73 8.34 2.66 8.17 2.66 8C2.66 7.82 2.73 7.65 2.86 7.52C2.98 7.4 3.15 7.33 3.33 7.33L7.33 7.33L7.33 3.33C7.33 3.15 7.4 2.98 7.52 2.86C7.65 2.73 7.82 2.66 8 2.66Z" fill="#FFFFFF" fill-opacity="1.000000" fill-rule="evenodd"/>
</svg>
