<svg width="16.500000" height="16.500000" viewBox="0 0 16.5 16.5" fill="none" xmlns="http://www.w3.org/2000/svg" xmlns:xlink="http://www.w3.org/1999/xlink">
	<desc>
			Created with Pixso.
	</desc>
	<defs/>
	<path id="Vector" d="M2.06 4.81C2.06 4.63 2.13 4.45 2.26 4.32C2.39 4.19 2.56 4.12 2.75 4.12L13.75 4.12C13.93 4.12 14.1 4.19 14.23 4.32C14.36 4.45 14.43 4.63 14.43 4.81C14.43 4.99 14.36 5.16 14.23 5.29C14.1 5.42 13.93 5.5 13.75 5.5L2.75 5.5C2.56 5.5 2.39 5.42 2.26 5.29C2.13 5.16 2.06 4.99 2.06 4.81ZM4.12 8.25C4.12 8.06 4.19 7.89 4.32 7.76C4.45 7.63 4.63 7.56 4.81 7.56L11.68 7.56C11.86 7.56 12.04 7.63 12.17 7.76C12.3 7.89 12.37 8.06 12.37 8.25C12.37 8.43 12.3 8.6 12.17 8.73C12.04 8.86 11.86 8.93 11.68 8.93L4.81 8.93C4.63 8.93 4.45 8.86 4.32 8.73C4.19 8.6 4.12 8.43 4.12 8.25ZM6.18 11.68C6.18 11.5 6.25 11.33 6.38 11.2C6.51 11.07 6.69 11 6.87 11L9.62 11C9.8 11 9.98 11.07 10.11 11.2C10.24 11.33 10.31 11.5 10.31 11.68C10.31 11.87 10.24 12.04 10.11 12.17C9.98 12.3 9.8 12.37 9.62 12.37L6.87 12.37C6.69 12.37 6.51 12.3 6.38 12.17C6.25 12.04 6.18 11.87 6.18 11.68Z" fill="#FFFFFF" fill-opacity="1.000000" fill-rule="evenodd"/>
</svg>
