<svg width="35.129150" height="15.576050" viewBox="0 0 35.1292 15.576" fill="none" xmlns="http://www.w3.org/2000/svg" xmlns:xlink="http://www.w3.org/1999/xlink">
	<desc>
			Created with Pixso.
	</desc>
	<defs/>
	<path id="PIN" d="M5.78 5.14e-5L-5.35e-5 5.14e-5L-5.35e-5 15.57L3.43 15.57L3.43 9.5L5.93 9.5C6.76 9.5 7.52 9.43 8.22 9.28C8.93 9.12 9.54 8.85 10.05 8.49C10.56 8.12 10.97 7.63 11.26 7.01Q11.7 6.09 11.7 4.73C11.7 3.8 11.54 3.04 11.21 2.44C10.91 1.82 10.48 1.34 9.94 0.99Q9.15 0.44 8.07 0.22C7.35 0.07 6.59 5.14e-5 5.78 5.14e-5ZM17.24 5.14e-5L13.81 5.14e-5L13.81 15.57L17.24 15.57L17.24 5.14e-5ZM25.03 5.14e-5L20.36 5.14e-5L20.36 15.57L23.79 15.57L23.79 4.48L23.84 4.48L30.64 15.57L35.12 15.57L35.12 5.14e-5L31.69 5.14e-5L31.69 10.82L31.65 10.82L25.03 5.14e-5ZM5.71 6.6L3.43 6.6L3.43 2.9L5.19 2.9C5.51 2.9 5.85 2.92 6.2 2.97C6.55 2.99 6.87 3.08 7.14 3.21C7.44 3.34 7.67 3.53 7.85 3.78C8.04 4.01 8.13 4.33 8.13 4.73C8.13 5.09 8.06 5.4 7.91 5.65C7.78 5.88 7.6 6.07 7.36 6.22Q7.03 6.42 6.59 6.51C6.32 6.57 6.02 6.6 5.71 6.6Z" fill="#FF1F23" fill-opacity="1.000000" fill-rule="evenodd"/>

</svg>
