<svg width="12.011597" height="12.009888" viewBox="0 0 12.0116 12.0099" fill="none" xmlns="http://www.w3.org/2000/svg" xmlns:xlink="http://www.w3.org/1999/xlink">
	<desc>
			Created with Pixso.
	</desc>
	<defs/>
	<path id="Vector" d="M7.41 6L11.71 1.71C11.9 1.52 12 1.27 12 1C12 0.73 11.9 0.48 11.71 0.29C11.52 0.1 11.27 0 11 0C10.73 0 10.48 0.1 10.29 0.29L6 4.59L1.71 0.29C1.52 0.1 1.27 0 1 0C0.73 0 0.48 0.1 0.29 0.29C0.1 0.48 0 0.73 0 1C0 1.27 0.1 1.52 0.29 1.71L4.59 6L0.29 10.29C0.2 10.38 0.12 10.49 0.07 10.61C0.02 10.74 0 10.87 0 11C0 11.13 0.02 11.26 0.07 11.38C0.12 11.51 0.2 11.62 0.29 11.71C0.38 11.8 0.49 11.88 0.62 11.93C0.74 11.98 0.87 12 1 12C1.13 12 1.26 11.98 1.39 11.93C1.51 11.88 1.62 11.8 1.71 11.71L6 7.41L10.29 11.71C10.38 11.8 10.49 11.88 10.62 11.93C10.74 11.98 10.87 12 11 12C11.13 12 11.26 11.98 11.39 11.93C11.51 11.88 11.62 11.8 11.71 11.71C11.8 11.62 11.88 11.51 11.93 11.38C11.98 11.26 12.01 11.13 12.01 11C12.01 10.87 11.98 10.74 11.93 10.61C11.88 10.49 11.8 10.38 11.71 10.29L7.41 6Z" fill="#FFFFFF" fill-opacity="1.000000" fill-rule="nonzero"/>
</svg>
